<svg width="10" height="10" viewBox="0 0 10 10" fill="none" xmlns="http://www.w3.org/2000/svg">
<path d="M5 0C7.76142 0 10 2.23858 10 5C10 7.76142 7.76142 10 5 10C2.23858 10 0 7.76142 0 5C0 2.23858 2.23858 0 5 0ZM5.08789 2.31641C4.84446 2.03227 4.45821 1.92778 4.11035 2.05176C3.76262 2.17585 3.52234 2.5037 3.50195 2.88184C3.48689 3.129 3.56974 3.37223 3.73145 3.55566L4.97852 5.00098L3.73145 6.44629C3.57042 6.63016 3.48768 6.87305 3.50195 7.12012C3.52811 7.61558 3.92788 8.00277 4.41016 8C4.66948 8.0002 4.9163 7.8856 5.08789 7.68555L6.87109 5.62012C7.17662 5.26706 7.17683 4.7338 6.87109 4.38086L5.08789 2.31641Z" fill="#979797"/>
</svg>
