<svg width="30" height="30" viewBox="0 0 30 30" fill="none" xmlns="http://www.w3.org/2000/svg">
<path d="M8.32959 12.1025L7.92969 12.4922L13.3319 18.1327L13.7318 17.743L8.32959 12.1025Z" fill="#B3E0FF"/>
<path d="M21.0316 16.8235L13.3203 17.8281L13.3914 18.3835L21.1027 17.3789L21.0316 16.8235Z" fill="#B3E0FF"/>
<path d="M13.3808 10.4662L7.88281 16.0117L8.2754 16.4077L13.7734 10.8622L13.3808 10.4662Z" fill="#B3E0FF"/>
<path d="M26.1542 6.54437L20.6562 12.0898L21.0488 12.4858L26.5468 6.94035L26.1542 6.54437Z" fill="#B3E0FF"/>
<path d="M13.8283 9.46907L13.6406 9.99609L20.9581 12.6475L21.1458 12.1205L13.8283 9.46907Z" fill="#B3E0FF"/>
<path d="M19.9855 16.3825L19.7891 16.9062L27.0615 19.6809L27.2579 19.1572L19.9855 16.3825Z" fill="#B3E0FF"/>
<path d="M3.32864 2.23047H2.77344V27.9988H3.32864V2.23047Z" fill="#A1D5FF"/>
<path d="M3.05341 0L1.11719 2.2317H4.98964L3.05341 0Z" fill="#A1D5FF"/>
<path d="M27.7656 22.9648V26.8716L29.9963 24.9186L27.7656 22.9648Z" fill="#A1D5FF"/>
<path d="M27.7693 24.6406H0V25.2006H27.7693V24.6406Z" fill="#A1D5FF"/>
<path d="M7.77447 15.1172C7.16087 15.1172 6.66406 15.6191 6.66406 16.2372C6.66406 16.8553 7.16169 17.358 7.77447 17.358C8.38726 17.358 8.88488 16.8561 8.88488 16.2372C8.88488 15.6183 8.38726 15.1172 7.77447 15.1172Z" fill="#FF837D"/>
<path d="M13.8847 8.95312C13.2711 8.95312 12.7734 9.45422 12.7734 10.0731C12.7734 10.692 13.2711 11.194 13.8847 11.194C14.4983 11.194 14.9951 10.692 14.9951 10.0731C14.9951 9.45422 14.4975 8.95312 13.8847 8.95312Z" fill="#FF837D"/>
<path d="M20.5479 11.1953C19.9343 11.1953 19.4375 11.6972 19.4375 12.3153C19.4375 12.9334 19.9351 13.4361 20.5479 13.4361C21.1607 13.4361 21.6591 12.9342 21.6591 12.3153C21.6591 11.6964 21.1615 11.1953 20.5479 11.1953Z" fill="#FF837D"/>
<path d="M26.6573 5.03125C26.0437 5.03125 25.5469 5.53235 25.5469 6.15125C25.5469 6.77015 26.0445 7.27208 26.6573 7.27208C27.2701 7.27208 27.7677 6.77015 27.7677 6.15125C27.7677 5.53235 27.2701 5.03125 26.6573 5.03125Z" fill="#FF837D"/>
<path d="M26.6573 17.918C26.0437 17.918 25.5469 18.4199 25.5469 19.0388C25.5469 19.6577 26.0445 20.1588 26.6573 20.1588C27.2701 20.1588 27.7677 19.6577 27.7677 19.0388C27.7677 18.4199 27.2701 17.918 26.6573 17.918Z" fill="#FF837D"/>
<path d="M20.5479 15.6758C19.9343 15.6758 19.4375 16.1777 19.4375 16.7966C19.4375 17.4155 19.9351 17.9166 20.5479 17.9166C21.1607 17.9166 21.6591 17.4155 21.6591 16.7966C21.6591 16.1777 21.1615 15.6758 20.5479 15.6758Z" fill="#FF837D"/>
<path d="M13.8847 16.7969C13.2711 16.7969 12.7734 17.298 12.7734 17.9169C12.7734 18.5358 13.2711 19.0377 13.8847 19.0377C14.4983 19.0377 14.9951 18.5358 14.9951 17.9169C14.9951 17.298 14.4975 16.7969 13.8847 16.7969Z" fill="#FF837D"/>
<path d="M7.77447 10.6367C7.16087 10.6367 6.66406 11.1378 6.66406 11.7567C6.66406 12.3756 7.16169 12.8775 7.77447 12.8775C8.38726 12.8775 8.88488 12.3756 8.88488 11.7567C8.88488 11.1378 8.38726 10.6367 7.77447 10.6367Z" fill="#FF837D"/>
</svg>
