<svg width="14" height="14" viewBox="0 0 14 14" fill="none" xmlns="http://www.w3.org/2000/svg">
<g clip-path="url(#clip0_949_15809)">
<path d="M6.95623 0C3.11411 0 0 3.1343 0 7C0 10.8657 3.11411 14 6.95623 14C10.6509 14 13.6721 11.1019 13.8988 7.44172C13.9155 7.1727 13.7122 6.94049 13.4442 6.92367C13.176 6.90686 12.9457 7.11191 12.929 7.38096C12.7339 10.5298 10.134 13.0228 6.95623 13.0228C3.65136 13.0228 0.971701 10.3266 0.971701 7C0.971701 3.67342 3.65136 0.97723 6.95623 0.97723C9.02482 0.97723 10.8489 2.03325 11.9243 3.64095L9.56983 3.39191C9.30266 3.36365 9.06383 3.55869 9.03582 3.8268C9.00783 4.09487 9.20108 4.33553 9.4682 4.36378L12.3603 4.66968C13.0268 4.74017 13.6234 4.25361 13.6933 3.58365L13.9973 0.673217C14.0253 0.405151 13.832 0.164493 13.5649 0.13624C13.2978 0.107981 13.0589 0.303018 13.0309 0.571133L12.7623 3.14329C11.5181 1.25025 9.38255 0 6.95623 0Z" fill="black"/>
</g>
<defs>
<clipPath id="clip0_949_15809">
<rect width="14" height="14" fill="white"/>
</clipPath>
</defs>
</svg>
