<svg width="16" height="16" viewBox="0 0 16 16" fill="none" xmlns="http://www.w3.org/2000/svg">
<path fill-rule="evenodd" clip-rule="evenodd" d="M12.6667 2.66667V4C14.5067 4.0022 15.9978 5.4933 16 7.33333V10.6667C15.9978 12.5067 14.5067 13.9978 12.6667 14C12.6667 15.1046 11.7712 16 10.6667 16H5.33333C4.22876 16 3.33333 15.1046 3.33333 14C1.4933 13.9978 0.00220408 12.5067 0 10.6667V7.33333C0.00220408 5.4933 1.4933 4.0022 3.33333 4V2.66667C3.33333 1.19391 4.52724 0 6 0H10C11.4728 0 12.6667 1.19391 12.6667 2.66667ZM6 1.33333C5.26362 1.33333 4.66667 1.93029 4.66667 2.66667V4H11.3333V2.66667C11.3333 1.93029 10.7364 1.33333 10 1.33333H6ZM11.3333 14C11.3333 14.3682 11.0349 14.6667 10.6667 14.6667H5.33333C4.96514 14.6667 4.66667 14.3682 4.66667 14V11.3333C4.66667 10.9651 4.96514 10.6667 5.33333 10.6667H10.6667C11.0349 10.6667 11.3333 10.9651 11.3333 11.3333V14ZM12.6667 12.6667C13.7712 12.6667 14.6667 11.7712 14.6667 10.6667V7.33333C14.6667 6.22876 13.7712 5.33333 12.6667 5.33333H3.33333C2.22876 5.33333 1.33333 6.22876 1.33333 7.33333V10.6667C1.33333 11.7712 2.22876 12.6667 3.33333 12.6667V11.3333C3.33333 10.2288 4.22876 9.33333 5.33333 9.33333H10.6667C11.7712 9.33333 12.6667 10.2288 12.6667 11.3333V12.6667Z" fill="black"/>
<path d="M12 6.66602H10.6667C10.2985 6.66602 10 6.96449 10 7.33268C10 7.70087 10.2985 7.99935 10.6667 7.99935H12C12.3682 7.99935 12.6667 7.70087 12.6667 7.33268C12.6667 6.96449 12.3682 6.66602 12 6.66602Z" fill="black"/>
</svg>
