<svg width="12" height="7" viewBox="0 0 12 7" fill="none" xmlns="http://www.w3.org/2000/svg">
<path d="M11.7508 0.581405C11.5899 0.423054 11.3708 0.333984 11.1423 0.333984C10.9138 0.333984 10.6947 0.423054 10.5338 0.581405L6.6085 4.41235C6.44758 4.5707 6.22852 4.65977 6 4.65977C5.77148 4.65977 5.55242 4.5707 5.3915 4.41235L1.46623 0.581405C1.3053 0.423054 1.08625 0.333984 0.857725 0.333984C0.629205 0.333984 0.410147 0.423054 0.249223 0.581405C-0.0830742 0.907653 -0.0830742 1.43455 0.249223 1.7608L4.18306 5.60011C5.1869 6.57861 6.81311 6.57861 7.81694 5.60011L11.7508 1.7608C12.0831 1.43455 12.0831 0.907653 11.7508 0.581405Z" fill="black"/>
</svg>
