<svg width="16" height="16" viewBox="0 0 16 16" fill="none" xmlns="http://www.w3.org/2000/svg">
<path fill-rule="evenodd" clip-rule="evenodd" d="M13.8427 4.3927C14.7769 4.38233 15.6076 5.00507 15.8877 5.9258C16.1877 6.8397 15.8726 7.8487 15.1122 8.40934L12.7385 10.2L13.64 13.0837C13.9269 14.0016 13.6079 15.0058 12.8503 15.5697C12.0928 16.1336 11.0696 16.1284 10.3174 15.5569L7.99571 13.7945L5.67467 15.559C4.92598 16.1421 3.89522 16.1474 3.14092 15.5721C2.37347 15.0146 2.05227 14.0022 2.35146 13.0837L3.25294 10.2L0.88189 8.40934C0.130812 7.84213 -0.18223 6.84053 0.105979 5.92676C0.394188 5.01298 1.21835 4.39407 2.14876 4.3927H5.0619L5.94671 1.54413C6.2322 0.624126 7.06039 0 7.99571 0C8.93103 0 9.75922 0.624126 10.0447 1.54413L10.9295 4.3927H13.8427ZM11.5623 9.3832L14.3254 7.29705H14.3267C14.6122 7.08118 14.731 6.70025 14.6211 6.35288C14.5113 6.00551 14.1978 5.77041 13.844 5.77015H10.4434C10.1538 5.77014 9.8973 5.57699 9.80867 5.29217L8.77517 1.96494C8.66633 1.61561 8.35166 1.37877 7.99638 1.37877C7.6411 1.37877 7.32643 1.61561 7.21759 1.96494L6.18408 5.29217C6.09546 5.57699 5.83895 5.77014 5.54931 5.77015H2.14876C1.79499 5.77041 1.48145 6.00551 1.37163 6.35288C1.2618 6.70025 1.38058 7.08118 1.66602 7.29705L4.42913 9.3832C4.66193 9.55862 4.75929 9.86866 4.67051 10.1518L3.617 13.5059C3.50605 13.8561 3.62752 14.2401 3.9172 14.4551C4.20689 14.67 4.59801 14.6664 4.88387 14.446L7.60098 12.3798C7.83586 12.2016 8.15557 12.2016 8.39044 12.3798L11.1075 14.446C11.3935 14.6634 11.7826 14.6655 12.0707 14.4511C12.3588 14.2368 12.4801 13.8549 12.3711 13.5059L11.3209 10.1518C11.2321 9.86866 11.3295 9.55862 11.5623 9.3832Z" fill="black"/>
</svg>
