<svg width="14" height="14" viewBox="0 0 14 14" fill="none" xmlns="http://www.w3.org/2000/svg">
<circle cx="7" cy="7" r="7" fill="#BCB1F0"/>
<path d="M7.66033 6.32618L5.80744 4.47329L2.8542 4.25112L6.29481 7.69173L5.02141 8.96513L2.42078 9.08158L7.33048 13.9913C11.043 13.8187 14 10.7545 14 6.99927C14 6.32104 13.9032 5.6655 13.7233 5.04532L11.3322 2.6543L7.66033 6.32618Z" fill="#A697EA"/>
<path d="M3.64986 3.44336L2.85416 4.25167L6.71441 6.11348L7.99702 5.16927L8.40866 4.20138L3.64986 3.44336Z" fill="#D4E4E4"/>
<path d="M4.35553 8.77494L9.29204 3.20376C9.69101 2.80479 10.7033 2.02505 11.3387 2.66047L7.98468 6.59868L4.00972 9.98947L2.42075 9.08149L2.98452 8.51772L4.35553 8.77494Z" fill="#ECE8FE"/>
<path d="M10.5565 10.3506L9.74822 11.1463L7.88641 7.28604L8.83062 6.00343L9.79851 5.5918L10.5565 10.3506Z" fill="#E3DDFB"/>
<path d="M5.22423 9.64532L10.7954 4.70882C11.1944 4.30984 11.9741 3.29752 11.3387 2.66211L4.0097 9.99114L4.91768 11.5801L5.48145 11.0163L5.22423 9.64532Z" fill="#D4E4E4"/>
</svg>
