<svg width="16" height="16" viewBox="0 0 16 16" fill="none" xmlns="http://www.w3.org/2000/svg">
<path fill-rule="evenodd" clip-rule="evenodd" d="M12.6099 11.1987L15.7067 14.2968L15.7067 14.2982C16.096 14.6875 16.096 15.3187 15.7067 15.708C15.3174 16.0973 14.6862 16.0973 14.2968 15.708L11.1988 12.6099C8.71134 14.4713 5.29498 14.4713 2.80759 12.6099C-0.288925 10.2928 -0.920737 5.90411 1.39641 2.80759C3.71356 -0.288925 8.10223 -0.920736 11.1988 1.39641C14.2953 3.71356 14.9271 8.10223 12.6099 11.1987ZM2.04601 7.02899C2.04601 9.78103 4.27695 12.012 7.02899 12.012C9.77982 12.009 12.009 9.77978 12.012 7.02899C12.012 4.27695 9.78103 2.04601 7.02899 2.04601C4.27695 2.04601 2.04601 4.27695 2.04601 7.02899Z" fill="black"/>
</svg>
