<svg width="18" height="18" viewBox="0 0 18 18" fill="none" xmlns="http://www.w3.org/2000/svg">
<path d="M17.1245 6.87955L14.2153 3.9703C13.921 3.68607 13.4533 3.69014 13.164 3.97944C12.8747 4.26874 12.8706 4.73652 13.1548 5.0308L16.0641 7.94005C16.1505 8.0282 16.226 8.1264 16.2891 8.23255C16.2778 8.23255 16.2688 8.22655 16.2576 8.22655L4.49462 8.25055C4.08041 8.25055 3.74463 8.58634 3.74463 9.00055C3.74463 9.41476 4.08041 9.75055 4.49462 9.75055L16.2531 9.72655C16.2741 9.72655 16.2913 9.71605 16.3116 9.71455C16.245 9.84142 16.1607 9.9581 16.0611 10.061L13.1518 12.9703C12.9569 13.1586 12.8787 13.4375 12.9473 13.6997C13.0159 13.9619 13.2207 14.1667 13.4829 14.2353C13.7452 14.304 14.024 14.2258 14.2123 14.0308L17.1215 11.1215C18.2927 9.95005 18.2927 8.05105 17.1215 6.87955H17.1245Z" fill="white"/>
<path d="M5.2529 16.5H3.75291C2.51027 16.5 1.50292 15.4926 1.50292 14.25V3.75C1.50292 2.50736 2.51027 1.5 3.75291 1.5H5.2529C5.66711 1.5 6.00289 1.16421 6.00289 0.75C6.00289 0.335786 5.66711 8.7289e-09 5.2529 0H3.75291C1.68288 0.00247959 0.00540926 1.67996 0.00292969 3.75V14.25C0.00540926 16.32 1.68288 17.9975 3.75291 18H5.2529C5.66711 18 6.00289 17.6642 6.00289 17.25C6.00289 16.8358 5.66711 16.5 5.2529 16.5Z" fill="white"/>
</svg>
