<svg width="16" height="17" viewBox="0 0 16 17" fill="none" xmlns="http://www.w3.org/2000/svg">
<path d="M7.67578 0C8.92226 0 10.0956 0.486466 10.9756 1.36621L13.2959 3.69336C14.1759 4.57332 14.663 5.74656 14.6631 6.99316H14.6689V12.667C14.6688 14.5068 13.1758 16 11.3359 16H4.66895C2.8292 15.9998 1.33611 14.5067 1.33594 12.667V3.33301C1.33611 1.49327 2.8292 0.000176158 4.66895 0H7.67578ZM4.66895 1.33301C3.5692 1.33319 2.66912 2.23326 2.66895 3.33301V12.667C2.66912 13.7667 3.5692 14.6668 4.66895 14.667H11.3359C12.4358 14.667 13.3358 13.7668 13.3359 12.667V6.98633C13.3359 6.8798 13.3356 6.76668 13.3223 6.66016H10.0029C8.90298 6.66016 8.00302 5.76009 8.00293 4.66016V1.34668C7.89626 1.33335 7.78911 1.33301 7.67578 1.33301H4.66895ZM5.90918 8.15332C6.19585 7.91999 6.60961 7.95357 6.84961 8.24023L8.00293 9.62695L9.15625 8.24023C9.38955 7.9603 9.80904 7.92012 10.0957 8.15332C10.3757 8.38665 10.416 8.80708 10.1826 9.09375L8.86914 10.667L10.1826 12.2402C10.4158 12.5202 10.3823 12.9397 10.0957 13.1797C9.96904 13.2864 9.82228 13.333 9.66895 13.333C9.47589 13.3329 9.28949 13.2534 9.15625 13.0938L8.00293 11.707L6.84961 13.0938C6.71628 13.2537 6.52924 13.333 6.33594 13.333C6.1826 13.333 6.03585 13.2797 5.90918 13.1797C5.62947 12.9464 5.58927 12.5268 5.82227 12.2402L7.13574 10.667L5.82227 9.09375C5.58894 8.81377 5.62256 8.39333 5.90918 8.15332ZM9.33594 4.66699C9.33611 5.03351 9.63637 5.33301 10.0029 5.33301H12.8955C12.7489 5.07984 12.5687 4.847 12.3555 4.63379L10.0361 2.30664C9.8228 2.09331 9.58927 1.91327 9.33594 1.7666V4.66699Z" fill="black"/>
</svg>
