<svg width="6" height="10" viewBox="0 0 6 10" fill="none" xmlns="http://www.w3.org/2000/svg">
<path d="M5.06443 9.31308C5.1832 9.19239 5.25 9.0281 5.25 8.85671C5.25 8.68532 5.1832 8.52102 5.06443 8.40033L2.19122 5.45638C2.07246 5.33568 2.00566 5.17139 2.00566 5C2.00566 4.82861 2.07246 4.66432 2.19122 4.54362L5.06443 1.59967C5.1832 1.47898 5.25 1.31468 5.25 1.14329C5.25 0.971903 5.1832 0.80761 5.06443 0.686917C4.81975 0.437694 4.42457 0.437694 4.17989 0.686917L1.3004 3.6373C0.566533 4.39017 0.566533 5.60983 1.3004 6.3627L4.17989 9.31308C4.42457 9.56231 4.81975 9.56231 5.06443 9.31308Z" fill="white"/>
</svg>
