<svg width="14" height="14" viewBox="0 0 14 14" fill="none" xmlns="http://www.w3.org/2000/svg">
<path d="M7 1.51038C8.56894 1.5152 10.0706 2.10826 11.1704 3.15737H9.34225C9.01885 3.15737 8.75669 3.40316 8.75669 3.70636C8.75669 4.00957 9.01885 4.25536 9.34225 4.25536H11.7682C12.3687 4.25506 12.8553 3.7988 12.8556 3.23587V0.961382C12.8556 0.65818 12.5935 0.412386 12.2701 0.412386C11.9467 0.412386 11.6845 0.65818 11.6845 0.961382V2.1022C9.71056 0.435468 6.90183 -0.0430234 4.42867 0.866102C1.9555 1.77523 0.242145 3.91602 0.00252245 6.39645C-0.0127705 6.55103 0.0419654 6.70451 0.15335 6.81939C0.264734 6.93426 0.422501 6.99993 0.588085 7.00034C0.884887 7.00389 1.1358 6.79505 1.16721 6.51833C1.43738 3.68591 3.96688 1.51413 7 1.51038Z" fill="white"/>
<path d="M13.4125 7.00004C13.1157 6.9965 12.8648 7.20534 12.8334 7.48206C12.6358 9.61573 11.1309 11.4461 8.9805 12.1686C6.83006 12.8911 4.42776 12.3734 2.82966 10.843H4.65779C4.98118 10.843 5.24335 10.5972 5.24335 10.294C5.24335 9.99082 4.98118 9.74503 4.65779 9.74503H2.2318C1.94336 9.74488 1.66669 9.85224 1.46273 10.0435C1.25877 10.2347 1.14425 10.4941 1.14441 10.7645V13.039C1.14441 13.3422 1.40657 13.588 1.72997 13.588C2.05337 13.588 2.31554 13.3422 2.31554 13.039V11.8982C4.28948 13.5649 7.09821 14.0434 9.57137 13.1343C12.0445 12.2252 13.7579 10.0844 13.9975 7.60394C14.0128 7.44936 13.9581 7.29587 13.8467 7.181C13.7353 7.06613 13.5775 7.00046 13.412 7.00004H13.4125Z" fill="white"/>
</svg>
