<svg width="24" height="26" viewBox="0 0 24 26" fill="none" xmlns="http://www.w3.org/2000/svg">
<g clip-path="url(#clip0_875_21391)">
<path d="M12 25.9996C17.0606 25.9996 21.163 24.7379 21.163 23.1815C21.163 21.625 17.0606 20.3633 12 20.3633C6.93944 20.3633 2.83704 21.625 2.83704 23.1815C2.83704 24.7379 6.93944 25.9996 12 25.9996Z" fill="#00BED6"/>
<path d="M12 24.3636C18.6274 24.3636 24 18.9096 24 12.1818C24 5.45399 18.6274 0 12 0C5.37258 0 0 5.45399 0 12.1818C0 18.9096 5.37258 24.3636 12 24.3636Z" fill="#FFDC00"/>
<path d="M24 12.1825C24 18.9134 18.6269 24.3643 12 24.3643C7.75524 24.3643 4.0227 22.128 1.89136 18.7498C4.09076 21.2989 7.32539 22.9098 10.9254 22.9098C17.5523 22.9098 22.9254 17.4589 22.9254 10.728C22.9254 8.31342 22.234 6.06251 21.0376 4.16797C22.8824 6.30979 24 9.11342 24 12.1825Z" fill="#FFB400"/>
<path d="M3.72895 6.89404C3.10566 7.32677 3.2991 7.83586 3.93671 7.63586C5.10447 7.27586 6.32954 6.56313 7.10686 5.54495C7.52238 5.00313 7.52238 4.52313 7.30387 4.25041C7.08536 3.97404 6.55163 3.68313 5.9391 4.59222C5.22626 5.65404 4.54566 6.32677 3.73253 6.89404H3.72895Z" fill="#FFAA00"/>
<path d="M20.271 6.89404C20.8943 7.32677 20.7009 7.83586 20.0633 7.63586C18.8955 7.27586 17.6704 6.56313 16.8931 5.54495C16.4776 5.00313 16.4776 4.52313 16.6961 4.25041C16.9146 3.97404 17.4484 3.68313 18.0609 4.59222C18.7737 5.65404 19.4543 6.32677 20.2675 6.89404H20.271Z" fill="#FFAA00"/>
<path d="M19.7158 9.33099C18.788 10.0983 18.6698 10.7274 19.0925 11.8219C19.5152 12.9164 20.031 13.331 19.963 14.8801C19.8949 16.4037 18.6268 17.7528 19.8054 19.5637C20.8155 21.1128 20.5862 22.6546 20.1958 23.611C20.0633 23.9346 16.0513 23.8583 16.1552 23.611C16.4812 22.851 16.8215 21.6037 16.1122 20.0619C15.2024 18.091 15.3743 16.811 16.1051 14.8219C16.7606 13.0401 14.2674 11.2583 15.5642 8.88008C16.08 7.93463 19.4221 8.37099 19.7158 9.33099Z" fill="#00BED6"/>
<path d="M4.28418 9.33099C5.21194 10.0983 5.33015 10.7274 4.90746 11.8219C4.48477 12.9164 3.96895 13.331 4.03701 14.8801C4.10507 16.4037 5.37313 17.7528 4.19463 19.5637C3.18448 21.1128 3.41373 22.6546 3.80418 23.611C3.93672 23.9346 7.94866 23.8583 7.84477 23.611C7.51881 22.851 7.17851 21.6037 7.88776 20.0619C8.79761 18.091 8.62567 16.811 7.89492 14.8219C7.2394 13.0401 9.73254 11.2583 8.43582 8.88008C7.92 7.93463 4.57791 8.37099 4.28418 9.33099Z" fill="#00BED6"/>
<path d="M6.7737 7.53725C7.69072 7.52997 8.56475 7.81361 9.25967 8.53725C10.4633 9.78452 9.89728 10.4682 9.60713 10.0972C9.05907 9.40634 8.12057 8.55179 6.8346 8.6027C5.35519 8.66088 4.74266 9.47906 4.2734 10.1082C4.08355 10.3627 3.62863 10.2027 3.92594 9.47543C4.48833 8.10452 5.8531 7.54815 6.7737 7.53725Z" fill="#401800"/>
<path d="M17.2262 7.53725C16.3092 7.52997 15.4352 7.81361 14.7403 8.53725C13.5367 9.78452 14.1027 10.4682 14.3928 10.0972C14.9409 9.40634 15.8794 8.55179 17.1653 8.6027C18.6447 8.66088 19.2573 9.47906 19.7265 10.1082C19.9164 10.3627 20.3713 10.2027 20.074 9.47543C19.5116 8.10452 18.1468 7.54815 17.2262 7.53725Z" fill="#401800"/>
<path d="M14.597 17.0067C14.597 17.654 14.4072 18.2504 14.0883 18.734C13.6155 19.4504 12.8561 19.9158 12 19.9158C11.1439 19.9158 10.3845 19.4504 9.91163 18.734C9.59282 18.2504 9.40656 17.654 9.40656 17.0067C9.40656 16.6867 9.45312 16.3777 9.54267 16.0904C9.87939 14.9304 10.8537 14.0977 12 14.0977C13.1463 14.0977 14.1206 14.9304 14.4609 16.0904C14.5504 16.3777 14.597 16.6867 14.597 17.0067Z" fill="#401800"/>
<path d="M14.0883 18.7334C13.6155 19.4497 12.8561 19.9152 12 19.9152C11.1439 19.9152 10.3845 19.4497 9.91162 18.7334C10.3845 18.017 11.1618 17.0606 12 18.2788C12.8489 17.0606 13.6155 18.017 14.0883 18.7334Z" fill="#CC0A17"/>
<path d="M14.4609 16.0904H9.54266C9.87938 14.9304 10.8537 14.0977 12 14.0977C13.1462 14.0977 14.1206 14.9304 14.4609 16.0904Z" fill="white"/>
</g>
<defs>
<clipPath id="clip0_875_21391">
<rect width="24" height="26" fill="white"/>
</clipPath>
</defs>
</svg>
