<svg width="24" height="24" viewBox="0 0 24 24" fill="none" xmlns="http://www.w3.org/2000/svg">
<g clip-path="url(#clip0_875_21355)">
<path d="M12 24C18.6274 24 24 18.6274 24 12C24 5.37258 18.6274 0 12 0C5.37258 0 0 5.37258 0 12C0 18.6274 5.37258 24 12 24Z" fill="#FFDC00"/>
<path d="M24 12.0004C24 18.6308 18.6269 24.0004 12 24.0004C7.75524 24.0004 4.0227 21.7974 1.89136 18.4696C4.09076 20.9807 7.32539 22.5676 10.9254 22.5676C17.5523 22.5676 22.9254 17.198 22.9254 10.5676C22.9254 8.18905 22.234 5.97174 21.0376 4.10547C22.8824 6.21532 24 8.97711 24 12.0004Z" fill="#FFB400"/>
<path d="M5.58808 16.5036C6.75728 16.5036 7.7051 15.5557 7.7051 14.3865C7.7051 13.2174 6.75728 12.2695 5.58808 12.2695C4.41889 12.2695 3.47107 13.2174 3.47107 14.3865C3.47107 15.5557 4.41889 16.5036 5.58808 16.5036Z" fill="#FFAA00"/>
<path d="M18.4119 16.5036C19.5811 16.5036 20.529 15.5557 20.529 14.3865C20.529 13.2174 19.5811 12.2695 18.4119 12.2695C17.2427 12.2695 16.2949 13.2174 16.2949 14.3865C16.2949 15.5557 17.2427 16.5036 18.4119 16.5036Z" fill="#FFAA00"/>
<path d="M17.8281 13.4056C17.7564 14.971 16.9039 16.3572 15.6036 17.2635C14.6149 17.9549 13.3576 18.3668 12.0036 18.3668C10.6496 18.3668 9.39225 17.9549 8.4036 17.2635C7.1033 16.3572 6.2436 14.9674 6.17554 13.3984C6.59464 14.2187 7.26091 14.9316 8.1027 15.4725C9.17375 16.1638 10.5349 16.5758 12.0036 16.5758C13.4723 16.5758 14.8299 16.1638 15.9009 15.4725C16.7391 14.9316 17.409 14.2223 17.8281 13.4056Z" fill="#401800"/>
<path d="M6.04299 6.29352C6.87762 6.06426 7.7803 6.26128 8.68657 7.11381C10.2519 8.58605 9.99045 9.68217 9.58568 9.23083C8.82627 8.38546 7.64776 7.40396 6.49791 7.78008C5.16896 8.21352 4.91821 9.51023 4.72478 10.5061C4.64597 10.9108 4.16956 10.789 4.16956 9.6965C4.16956 7.62964 5.20478 6.52635 6.04299 6.2971V6.29352Z" fill="#401800"/>
<path d="M17.957 6.29352C17.1224 6.06426 16.2197 6.26128 15.3134 7.11381C13.7481 8.58605 14.0096 9.68217 14.4143 9.23083C15.1737 8.38546 16.3522 7.40396 17.5021 7.78008C18.8311 8.21352 19.0818 9.51023 19.2752 10.5061C19.354 10.9108 19.8305 10.789 19.8305 9.6965C19.8305 7.62964 18.7952 6.52635 17.957 6.2971V6.29352Z" fill="#401800"/>
<path d="M21.4173 5.24408C22.277 5.55214 22.6352 5.00766 21.9869 4.5205C20.8084 3.62855 19.243 2.92647 17.7099 2.87632C16.8896 2.85124 16.4275 3.18796 16.3164 3.59273C16.2054 4.00109 16.3021 4.73184 17.6167 4.69244C19.1534 4.64945 20.2854 4.84288 21.4137 5.24408H21.4173Z" fill="#FFAA00"/>
<path d="M2.5827 5.24408C1.723 5.55214 1.36479 5.00766 2.01315 4.5205C3.19166 3.62855 4.75703 2.92647 6.29016 2.87632C7.11046 2.85124 7.57255 3.18796 7.6836 3.59273C7.79464 4.00109 7.69793 4.73184 6.3833 4.69244C4.84658 4.64945 3.71464 4.84288 2.58628 5.24408H2.5827Z" fill="#FFAA00"/>
</g>
<defs>
<clipPath id="clip0_875_21355">
<rect width="24" height="24" fill="white"/>
</clipPath>
</defs>
</svg>
