<svg width="24" height="24" viewBox="0 0 24 24" fill="none" xmlns="http://www.w3.org/2000/svg">
<path d="M12 24C18.6274 24 24 18.6274 24 12C24 5.37258 18.6274 0 12 0C5.37258 0 0 5.37258 0 12C0 18.6274 5.37258 24 12 24Z" fill="#FFDC00"/>
<path d="M24 12.0004C24 18.6308 18.6269 24.0004 12 24.0004C7.75524 24.0004 4.0227 21.7974 1.89136 18.4696C4.09076 20.9807 7.32539 22.5676 10.9254 22.5676C17.5523 22.5676 22.9254 17.198 22.9254 10.5676C22.9254 8.18905 22.234 5.97174 21.0376 4.10547C22.8824 6.21532 24 8.97711 24 12.0004Z" fill="#FFB400"/>
<path d="M18.5982 9.09593C18.5982 10.3676 17.8531 11.4028 16.9325 11.4028C16.0119 11.4028 15.2668 10.3712 15.2668 9.09593C15.2668 7.8207 16.0119 6.78906 16.9325 6.78906C17.8531 6.78906 18.5982 7.8207 18.5982 9.09593Z" fill="#542000"/>
<path d="M18.5982 9.09666C18.5982 10.3719 17.8531 11.4035 16.9325 11.4035C16.2519 11.4035 15.6645 10.8376 15.4102 10.028C15.7075 10.4364 16.123 10.6871 16.5743 10.6871C17.4949 10.6871 18.24 9.65546 18.24 8.38024C18.24 8.0471 18.1899 7.73188 18.0931 7.44531C18.4048 7.86442 18.5982 8.4483 18.5982 9.09666Z" fill="#401800"/>
<path d="M8.73314 9.09593C8.73314 10.3676 7.98806 11.4028 7.06747 11.4028C6.14687 11.4028 5.40179 10.3712 5.40179 9.09593C5.40179 7.8207 6.14687 6.78906 7.06747 6.78906C7.98806 6.78906 8.73314 7.8207 8.73314 9.09593Z" fill="#542000"/>
<path d="M8.73316 9.09666C8.73316 10.3719 7.98809 11.4035 7.06749 11.4035C6.3869 11.4035 5.79943 10.8376 5.5451 10.028C5.84242 10.4364 6.25794 10.6871 6.70928 10.6871C7.62988 10.6871 8.37496 9.65546 8.37496 8.38024C8.37496 8.0471 8.32481 7.73188 8.22809 7.44531C8.53973 7.86442 8.73316 8.4483 8.73316 9.09666Z" fill="#401800"/>
<path d="M17.1869 14.3867C17.1869 16.0381 16.4203 17.5103 15.2167 18.4596C15.2131 18.4631 15.206 18.4667 15.2024 18.4703C14.3212 19.1616 13.2072 19.5736 12 19.5736C10.7928 19.5736 9.68238 19.1616 8.80119 18.4703C8.80119 18.4703 8.7988 18.4703 8.79402 18.4703C7.58686 17.5175 6.81671 16.0452 6.81671 14.3903H17.1869V14.3867Z" fill="#401800"/>
<path d="M15.1988 18.4671C14.3176 19.1585 13.2036 19.574 12 19.574C10.7964 19.574 9.67882 19.1621 8.80121 18.4671C9.163 17.1776 10.9934 16.4397 12 17.6576C12.9457 16.4504 14.837 17.1776 15.1988 18.4671Z" fill="#CC0A17"/>
<path d="M16.6747 14.3867V14.7055C16.6747 15.1748 16.2878 15.4721 15.8257 15.5545C13.3505 15.9879 10.6173 16.0022 8.17794 15.5545C7.71943 15.4685 7.32898 15.1748 7.32898 14.7055V14.3867H16.6747Z" fill="white"/>
<path d="M19.6657 6.73162C20.289 7.15431 20.6866 6.7961 20.2711 6.27311C19.5152 5.3167 18.4119 4.43192 17.1976 4.07371C16.5493 3.88386 16.1087 4.0558 15.9367 4.35669C15.7648 4.65759 15.6896 5.26296 16.7463 5.50296C17.9821 5.78595 18.8454 6.1764 19.6621 6.72804L19.6657 6.73162Z" fill="#FFAA00"/>
<path d="M4.33433 6.73162C3.71105 7.15431 3.31344 6.7961 3.72896 6.27311C4.48478 5.3167 5.58806 4.43192 6.80239 4.07371C7.45075 3.88386 7.89135 4.0558 8.06329 4.35669C8.23523 4.65759 8.31045 5.26296 7.25373 5.50296C6.01791 5.78595 5.15463 6.1764 4.33791 6.72804L4.33433 6.73162Z" fill="#FFAA00"/>
</svg>
