<svg width="24" height="24" viewBox="0 0 24 24" fill="none" xmlns="http://www.w3.org/2000/svg">
<path d="M12 24C18.6274 24 24 18.6274 24 12C24 5.37258 18.6274 0 12 0C5.37258 0 0 5.37258 0 12C0 18.6274 5.37258 24 12 24Z" fill="#FFDC00"/>
<path d="M24 12.0004C24 18.6308 18.6269 24.0004 12 24.0004C7.75524 24.0004 4.0227 21.7974 1.89136 18.4696C4.09076 20.9807 7.32539 22.5676 10.9254 22.5676C17.5523 22.5676 22.9254 17.198 22.9254 10.5676C22.9254 8.18905 22.234 5.97174 21.0376 4.10547C22.8824 6.21532 24 8.97711 24 12.0004Z" fill="#FFB400"/>
<path d="M9.85793 8.22185C9.85793 8.22185 9.84002 8.2505 9.82928 8.26125L7.74808 11.2774C7.69077 11.3598 7.57614 11.3848 7.49017 11.3311L4.3845 9.38603C4.3845 9.38603 4.35942 9.3717 4.34868 9.36095C3.92599 9.08513 3.6645 8.71976 3.54987 8.32215C3.52122 8.23976 3.5033 8.15737 3.49256 8.07856C3.22032 6.38065 5.43047 5.43856 6.56957 6.72812L6.70928 6.88215L6.77017 6.68513C7.10689 5.64991 8.19584 5.27021 9.05554 5.54603C9.55704 5.70364 9.97972 6.09409 10.1373 6.70304C10.2591 7.18662 10.1911 7.71677 9.85793 8.22185Z" fill="#F21B2D"/>
<path d="M9.85793 8.22237C9.85793 8.22237 9.84002 8.25103 9.82927 8.26177L7.74807 11.2779C7.69076 11.3603 7.57613 11.3854 7.49016 11.3316L4.38449 9.38655C4.38449 9.38655 4.35942 9.37222 4.34867 9.36148C3.92599 9.08565 3.66449 8.72028 3.54987 8.32267C4.34867 9.36148 6.47643 10.0242 7.80181 9.31133C9.58569 8.35133 10.1911 6.54237 9.05554 5.54297C9.55703 5.70058 9.97972 6.09103 10.1373 6.69998C10.2591 7.18357 10.1911 7.71372 9.85793 8.21879V8.22237Z" fill="#D91828"/>
<path d="M14.1421 8.26482C14.1421 8.26482 14.16 8.29347 14.1708 8.30422L16.252 11.3203C16.3093 11.4027 16.4239 11.4278 16.5099 11.3741L19.6156 9.42899C19.6156 9.42899 19.6406 9.41467 19.6514 9.40392C20.0741 9.1281 20.3356 8.76273 20.4502 8.36511C20.4788 8.28273 20.4968 8.20034 20.5075 8.12153C20.7797 6.42362 18.5696 5.48153 17.4305 6.77108L17.2908 6.92511L17.2299 6.7281C16.8932 5.69288 15.8042 5.31317 14.9445 5.58899C14.443 5.74661 14.0203 6.13705 13.8627 6.74601C13.7409 7.22959 13.809 7.75974 14.1421 8.26482Z" fill="#F21B2D"/>
<path d="M19.6442 9.40698L16.4956 11.3735C16.4096 11.4273 16.295 11.4058 16.2377 11.3198C16.2377 11.3198 14.1457 8.27504 14.1386 8.26429C13.8592 7.84161 13.766 7.40459 13.8162 6.99265C14.1386 8.26429 15.8257 9.71862 17.3266 9.58967C19.3469 9.41773 20.6186 7.99922 19.9738 6.63086C20.3714 6.97474 20.6042 7.50131 20.5039 8.12101C20.4215 8.61175 20.1493 9.07384 19.6442 9.4034V9.40698Z" fill="#D91828"/>
<path d="M7.7051 14.3865C7.7051 15.5543 6.75585 16.5036 5.58808 16.5036C4.42032 16.5036 3.47107 15.5543 3.47107 14.3865C3.47107 13.2188 4.42032 12.2695 5.58808 12.2695C6.75585 12.2695 7.7051 13.2188 7.7051 14.3865Z" fill="#FFAA00"/>
<path d="M18.4119 16.5036C19.5811 16.5036 20.529 15.5557 20.529 14.3865C20.529 13.2174 19.5811 12.2695 18.4119 12.2695C17.2427 12.2695 16.2949 13.2174 16.2949 14.3865C16.2949 15.5557 17.2427 16.5036 18.4119 16.5036Z" fill="#FFAA00"/>
<path d="M15.9833 17.6454C15.9833 17.6454 15.969 17.6561 15.9654 17.6633C14.8836 18.8633 13.5188 19.5797 12.0358 19.5797C10.5529 19.5797 9.21674 18.8167 8.10988 17.6633C6.19704 15.6681 6.76659 14.5325 7.41137 14.7869C7.41853 14.7869 7.41853 14.7869 7.4257 14.794C8.69734 15.8902 10.3021 16.8967 12.0358 16.8967C13.7696 16.8967 15.3815 15.8902 16.646 14.794C16.6532 14.7869 16.6639 14.7833 16.6675 14.7761C17.2406 14.289 17.7278 15.5534 15.9833 17.6454Z" fill="#401800"/>
</svg>
