<svg width="24" height="24" viewBox="0 0 24 24" fill="none" xmlns="http://www.w3.org/2000/svg">
<g clip-path="url(#clip0_875_21373)">
<path d="M12 24C18.6274 24 24 18.6274 24 12C24 5.37258 18.6274 0 12 0C5.37258 0 0 5.37258 0 12C0 18.6274 5.37258 24 12 24Z" fill="#F21B2D"/>
<path d="M24 12.0004C24 18.6308 18.6269 24.0004 12 24.0004C7.75524 24.0004 4.0227 21.7974 1.89136 18.4696C4.09076 20.9807 7.32539 22.5676 10.9254 22.5676C17.5523 22.5676 22.9254 17.198 22.9254 10.5676C22.9254 8.18905 22.234 5.97174 21.0376 4.10547C22.8824 6.21532 24 8.97711 24 12.0004Z" fill="#A6111D"/>
<path d="M4.40958 4.4958C4.28779 4.47431 4.2663 4.31311 4.38092 4.26655C6.11824 3.57878 8.94809 3.61461 10.6209 5.1155C11.2048 5.63849 11.28 6.26893 11.0651 6.73461C10.8502 7.20028 9.92242 7.55132 9.3851 6.92446C7.85913 5.14774 6.3654 4.82177 4.40958 4.4958Z" fill="#A6111D"/>
<path d="M19.5905 4.4958C19.7123 4.47431 19.7338 4.31311 19.6191 4.26655C17.8818 3.57878 15.052 3.61461 13.3791 5.1155C12.7953 5.63849 12.72 6.26893 12.935 6.73461C13.1499 7.20028 14.0776 7.55132 14.615 6.92446C16.1409 5.14774 17.6347 4.82177 19.5905 4.4958Z" fill="#A6111D"/>
<path d="M18.5982 8.65062C18.5982 9.92226 17.8531 10.9575 16.9325 10.9575C16.0119 10.9575 15.2668 9.92584 15.2668 8.65062C15.2668 7.37539 16.0119 6.34375 16.9325 6.34375C17.8531 6.34375 18.5982 7.37539 18.5982 8.65062Z" fill="#332117"/>
<path d="M18.5982 8.65134C18.5982 9.92657 17.8531 10.9582 16.9325 10.9582C16.2519 10.9582 15.6645 10.3922 15.4102 9.58269C15.7075 9.99104 16.123 10.2418 16.5743 10.2418C17.4949 10.2418 18.24 9.21015 18.24 7.93492C18.24 7.60179 18.1899 7.28657 18.0931 7C18.4048 7.4191 18.5982 8.00298 18.5982 8.65134Z" fill="#1F140E"/>
<path d="M8.73314 8.65062C8.73314 9.92226 7.98806 10.9575 7.06747 10.9575C6.14687 10.9575 5.40179 9.92584 5.40179 8.65062C5.40179 7.37539 6.14687 6.34375 7.06747 6.34375C7.98806 6.34375 8.73314 7.37539 8.73314 8.65062Z" fill="#332117"/>
<path d="M8.73316 8.65134C8.73316 9.92657 7.98809 10.9582 7.06749 10.9582C6.3869 10.9582 5.79943 10.3922 5.5451 9.58269C5.84242 9.99104 6.25794 10.2418 6.70928 10.2418C7.62988 10.2418 8.37496 9.21015 8.37496 7.93492C8.37496 7.60179 8.32481 7.28657 8.22809 7C8.53973 7.4191 8.73316 8.00298 8.73316 8.65134Z" fill="#1F140E"/>
<path d="M7.81613 15.755C7.81613 15.755 7.83046 15.7479 7.83404 15.7443C8.97315 14.9491 10.4096 14.4727 11.9678 14.4727C13.526 14.4727 14.9337 14.9777 16.0979 15.7443C18.1111 17.0661 17.4734 17.9795 16.8323 17.65C16.8251 17.6464 16.8215 17.65 16.8179 17.6464C15.4818 16.9192 13.7946 16.253 11.9678 16.253C10.1409 16.253 8.47166 16.9765 7.11763 17.6464C7.10688 17.65 7.09971 17.6536 7.09613 17.6571C6.49434 17.9795 5.9821 17.1413 7.81613 15.755Z" fill="#332117"/>
</g>
<defs>
<clipPath id="clip0_875_21373">
<rect width="24" height="24" fill="white"/>
</clipPath>
</defs>
</svg>
