<svg width="218" height="20" viewBox="0 0 218 20" fill="none" xmlns="http://www.w3.org/2000/svg">
<path d="M27.1368 20C32.8807 20 36.6613 15.4619 39.5496 11.4734C41.9834 8.17587 46.1738 2.42948 52.7818 1.37073C53.1225 1.31415 53.0414 1.05552 52.6966 1.03128C49.7235 0.872525 46.773 1.62568 44.2429 3.1892C39.7808 5.82801 36.4707 11.2713 32.8239 13.9748C30.7957 15.4579 27.5099 16.949 24.4189 15.2841C24.4189 15.2841 21.4901 13.9223 21.6159 10.1317C21.6159 10.1317 21.6159 6.20383 25.4411 5.42795C25.4411 5.42795 28.1468 4.9511 29.4124 7.04437C29.5382 7.25855 29.5706 7.55759 29.2096 7.28279C28.6249 6.85928 27.8962 6.68217 27.1814 6.78978C26.0305 6.91173 25.0642 7.70726 24.7272 8.81031C24.4029 9.93987 24.7127 11.1559 25.5385 11.9947C25.5385 11.9947 26.3782 13.0575 28.2077 12.9686C31.9315 13.0009 35.4444 8.08292 36.5113 7.04033C38.791 4.76926 42.7014 0.897923 49.6218 0.441284C49.9747 0.421079 49.9341 0.182656 49.5812 0.130123C46.405 -0.322476 39.0466 0.0573836 32.3412 7.0767C31.5218 4.27625 28.804 2.42544 25.502 2.48606C22.5732 2.54667 17.6 4.79754 17.6 10.7945C17.6 17.1632 23.1249 20 27.1368 20Z" fill="white"/>
<path d="M18.9265 17.378C17.3235 15.5555 16.4411 13.2142 16.4439 10.7911C16.4439 10.678 16.4439 10.5648 16.4439 10.4517C14.1398 7.82093 11.6532 4.93157 8.7366 3.202C6.22145 1.64935 3.29071 0.897947 0.335646 1.04811C-0.0700007 1.07236 -0.122735 1.33099 0.258573 1.39565C6.83411 2.45844 11.0204 8.18462 13.4421 11.474C14.9592 13.5713 16.6345 15.8141 18.7885 17.475C19.036 17.669 19.1212 17.6043 18.9265 17.378Z" fill="white"/>
<path d="M3.4429 0.129956C3.07376 0.18249 3.03726 0.420912 3.41856 0.445159C10.3146 0.877552 14.4846 5.03984 16.5007 7.04016C16.6224 7.1614 16.7846 7.34324 16.9834 7.55742C17.3052 6.62017 17.766 5.73616 18.3504 4.93477C12.3387 0.000642074 6.24592 -0.270108 3.4429 0.129956Z" fill="white"/>
<path fill-rule="evenodd" clip-rule="evenodd" d="M73.6861 15.9215H70.5493L69.6686 13.4801H64.7857L63.905 15.9215H61L65.8828 3.32812H68.8032L73.6861 15.9215ZM67.2246 6.6503L65.6485 11.0387H68.8007L67.2246 6.6503Z" fill="white"/>
<path d="M80.9008 3.01953C78.0577 3.01953 75.8017 4.3793 75.8017 6.65074C75.8017 9.0149 77.2851 10.1429 80.0201 10.6528C82.2606 11.07 83.1105 11.4718 83.1105 12.4761C83.1105 13.2951 82.2606 13.8668 81.1172 13.8668C79.5102 13.8668 78.4594 13.0633 78.3049 11.8581H75.4154C75.539 14.5467 77.8105 16.231 80.9163 16.231C83.7286 16.231 86 14.763 86 12.3525C86 10.4674 85.0111 9.03035 82.1061 8.42772C79.6492 7.91781 78.6758 7.59331 78.6758 6.65074C78.6758 5.8936 79.402 5.36823 80.7154 5.36823C82.0597 5.36823 82.8787 6.03267 83.0487 7.12976H85.9536C85.8146 4.7347 83.7131 3.01953 80.9008 3.01953Z" fill="white"/>
<path d="M103.112 4.152V5.384H93.832V4.152H97.672V2.76H99.272V4.152H103.112ZM106.248 6.312H108.168V7.816H106.248V11.304H104.664V3H106.248V6.312ZM98.472 11.032C96.2 11.032 94.456 10.168 94.456 8.6C94.456 6.984 96.2 6.104 98.472 6.104C100.728 6.104 102.472 6.984 102.472 8.6C102.472 10.168 100.728 11.032 98.472 11.032ZM98.472 7.288C96.936 7.288 95.976 7.832 95.976 8.6C95.976 9.336 96.936 9.848 98.472 9.848C99.992 9.848 100.968 9.336 100.968 8.6C100.968 7.832 99.992 7.288 98.472 7.288ZM100.616 11.704C103.896 11.704 106.44 12.344 106.44 14.184C106.44 16.008 103.896 16.664 100.616 16.664C97.336 16.664 94.792 16.008 94.792 14.184C94.792 12.344 97.336 11.704 100.616 11.704ZM100.616 15.432C102.968 15.432 104.776 15.064 104.776 14.184C104.776 13.304 102.968 12.936 100.616 12.936C98.28 12.936 96.472 13.304 96.472 14.184C96.472 15.064 98.28 15.432 100.616 15.432ZM120.327 7.8V4.504H110.183V3.16H121.911V7.8H120.327ZM115.991 8.76H122.919V10.072H109.271V8.76H114.391V6.088H115.991V8.76ZM116.087 11.352C119.351 11.352 122.087 12.104 122.087 14.008C122.087 15.928 119.351 16.68 116.087 16.68C112.823 16.68 110.087 15.928 110.087 14.008C110.087 12.04 112.823 11.352 116.087 11.352ZM116.087 15.416C118.295 15.416 120.423 14.984 120.423 14.008C120.423 13.048 118.295 12.616 116.087 12.616C113.879 12.616 111.751 13 111.751 14.008C111.751 14.984 113.879 15.416 116.087 15.416ZM132.261 10.024H138.309V11.256H124.661V10.024H130.693V8.808H125.653V3.16H137.397V4.344H127.237V5.416H137.173V6.552H127.237V7.624H137.525V8.808H132.261V10.024ZM131.477 12.184C134.741 12.184 137.477 12.792 137.477 14.44C137.477 16.088 134.741 16.712 131.477 16.712C128.213 16.712 125.477 16.088 125.477 14.44C125.477 12.792 128.213 12.184 131.477 12.184ZM131.477 15.528C133.701 15.528 135.813 15.224 135.813 14.44C135.813 13.672 133.701 13.352 131.477 13.352C129.253 13.352 127.141 13.672 127.141 14.44C127.141 15.224 129.253 15.528 131.477 15.528ZM151.7 3H153.188V16.664H151.7V3ZM148.34 6.424V3.08H149.828V16.424H148.34V12.2H145.108C144.132 14.488 142.436 15.8 140.356 15.816V14.328C142.9 14.248 144.468 11.48 144.468 7.256V4.936H140.356V3.496H146.004V6.424H148.34ZM145.588 10.728H148.34V7.896H145.988C145.94 8.92 145.812 9.88 145.588 10.728ZM163.059 14.52H169.091V16.008H155.443V14.52H161.443V11.432H156.147V9.976H158.562V5.048H156.291V3.576H168.227V5.048H165.955V9.976H168.371V11.432H163.059V14.52ZM160.163 5.048V9.976H164.355V5.048H160.163ZM182.113 9.992V6.712H179.841V5.384H182.113V3H183.697V9.992H182.113ZM180.401 9.032C179.553 9.4 177.905 9.624 175.969 9.624H171.393V3.336H179.425V4.52H172.961V5.896H178.849V7.032H172.961V8.44H176.097C177.953 8.44 179.521 8.216 180.401 7.848V9.032ZM173.649 15.304H183.985V16.488H172.081V13.048H182.097V11.928H172.049V10.744H183.649V14.168H173.649V15.304Z" fill="white"/>
</svg>
